<?xml version="1.0" standalone="no"?> <!DOCTYPE svg PUBLIC "-//W3C//DTD SVG 1.0//EN" "http://www.w3.org/TR/2001/REC-SVG-20010904/DTD/svg10.dtd" > <svg xmlns="http://www.w3.org/2000/svg" width="100%" height="100%">
<defs >
<font id="ffdincondensedlight" horiz-adv-x="289" ><font-face
    font-family="DINCond-Light"
    units-per-em="1000"
    panose-1="0 0 0 0 0 0 0 0 0 0"
    ascent="922"
    descent="-216"
    alphabetic="0" />
<missing-glyph horiz-adv-x="186" />
<glyph unicode=" " glyph-name="space" horiz-adv-x="200" />
<glyph unicode="!" glyph-name="exclam" horiz-adv-x="216" d="M142 182H104V712H142V182ZM152 0H94V58H152V0Z" />
<glyph unicode="&quot;" glyph-name="quotedbl" horiz-adv-x="322" d="M264 536H212V712H264V536ZM110 536H58V712H110V536Z" />
<glyph unicode="#" glyph-name="numbersign" horiz-adv-x="461" d="M403 449H325L303 273H377V240H299L270 0H236L265 240H165L136 0H102L131 240H58V273H135L157 449H84L83 482H161L189 712H223L195 482H295L323 712H357L329 482H402L403 449ZM291 449H191L169
273H269L291 449Z" />
<glyph unicode="$" glyph-name="dollar" horiz-adv-x="388" d="M331 182Q331 74 287 29Q259 1 209 -5V-114H173V-6Q114 -3 84 29Q61 53 52 83T43 173H83Q83 88 114 57Q136 35 173 32V353L140 367Q86 389 67 426T48 544Q48 636 93 681Q126 713 173 717V806H209V717Q259
713 291 681Q315 656 323 627T331 549H291Q291 620 261 654Q241 675 209 681V382L244 368Q296 347 313 305T331 182ZM291 181Q291 253 275 285T213 337L209 339V33Q239 37 259 57Q278 76 284 103T291 181ZM173 397V681Q141 676 123 658Q88 624 88 545Q88 476 103
448T171 398L173 397Z" />
<glyph unicode="%" glyph-name="percent" horiz-adv-x="576" d="M234 438Q234 397 210 372T146 346T82 371T58 438V628Q58 669 82 694T146 720T210 695T234 628V438ZM518 84Q518 43 494 18T430 -8T366 17T342 84V274Q342 315 366 340T430 366T494 341T518 274V84ZM483
84V274Q483 302 470 318T430 335T391 319T377 274V84Q377 56 390 40T430 23T469 39T483 84ZM199 438V628Q199 656 186 672T146 689T107 673T93 628V438Q93 410 106 394T146 377T185 393T199 438ZM429 712L181 0H147L395 712H429Z" />
<glyph unicode="&amp;" glyph-name="ampersand" horiz-adv-x="481" d="M475 0H428L367 92Q327 41 290 17T195 -8Q129 -8 85 37T40 160Q40 225 69 275T170 388Q109 474 92 507T75 581Q75 636 108 677T205 718Q267 718 301 683T335 589Q335 528 311 486T219 383L368
160Q389 193 404 244T422 341H462Q451 211 391 126L475 0ZM345 125L190 358Q132 302 106 258T80 165Q80 108 111 68T199 28Q240 28 274 53T345 125ZM295 587Q295 629 270 656T205 683Q160 683 138 652T115 582Q115 550 130 519T199 413Q250 462 272 498T295 587Z"
/>
<glyph unicode="&apos;" glyph-name="quotesingle" horiz-adv-x="168" d="M110 536H58V712H110V536Z" />
<glyph unicode="(" glyph-name="parenleft" horiz-adv-x="206" d="M166 -68L140 -94Q97 -51 80 -20Q62 16 62 70V642Q62 696 80 732Q95 761 140 806L166 780Q125 739 115 718Q100 688 100 636V76Q100 24 115 -6Q125 -27 166 -68Z" />
<glyph unicode=")" glyph-name="parenright" horiz-adv-x="206" d="M144 70Q144 16 126 -20Q109 -51 66 -94L40 -68Q81 -27 91 -6Q106 24 106 76V636Q106 688 91 718Q81 739 40 780L66 806Q111 761 126 732Q144 696 144 642V70Z" />
<glyph unicode="*" glyph-name="asterisk" horiz-adv-x="352" d="M298 514L281 484L191 537L193 410H159L161 537L71 484L54 514L145 564L54 614L71 644L161 591L159 718H193L191 591L281 644L298 614L207 564L298 514Z" />
<glyph unicode="+" glyph-name="plus" horiz-adv-x="422" d="M372 255H229V112H193V255H50V291H193V434H229V291H372V255Z" />
<glyph unicode="," glyph-name="comma" horiz-adv-x="168" d="M110 -42L58 -80V60H110V-42Z" />
<glyph unicode="-" glyph-name="hyphen" horiz-adv-x="303" d="M245 255H58V291H245V255Z" />
<glyph unicode="." glyph-name="period" horiz-adv-x="186" d="M122 0H64V58H122V0Z" />
<glyph unicode="/" glyph-name="slash" horiz-adv-x="227" d="M227 786L42 -74H0L185 786H227Z" />
<glyph unicode="0" glyph-name="zero" horiz-adv-x="346" d="M288 119Q288 57 255 24Q223 -8 173 -8T91 24Q58 57 58 119V593Q58 655 91 688Q123 720 173 720T255 688Q288 655 288 593V119ZM250 117V595Q250 639 229 662T173 686T118 663T96 595V117Q96 73 117
50T173 26T228 49T250 117Z" />
<glyph unicode="1" glyph-name="one" horiz-adv-x="346" d="M199 0H161V667L61 577V625L161 712H199V0Z" />
<glyph unicode="2" glyph-name="two" horiz-adv-x="346" d="M293 0H53V31L219 438Q255 527 255 595Q255 639 234 662T178 686T123 663T101 595V543H63V595Q63 655 96 688Q128 720 178 720T260 688Q293 655 293 593Q293 524 252 424L93 34H293V0Z" />
<glyph unicode="3" glyph-name="three" horiz-adv-x="346" d="M287 194Q287 116 280 82T250 25Q219 -8 168 -8T86 23Q52 57 52 118V169H90V118Q90 74 112 50T168 26T221 48Q237 66 243 95T249 194Q249 272 244 299T221 344Q200 366 168 366H125V400H168Q199 400
217 419Q243 446 243 543Q243 638 218 666Q198 686 168 686Q135 686 115 663T95 594V543H57V594Q57 657 89 689Q120 720 168 720Q217 720 247 690Q266 671 273 640T281 543Q281 452 261 419Q247 396 221 383Q246 370 260 352Q276 330 281 302T287 194Z" />
<glyph unicode="4" glyph-name="four" horiz-adv-x="346" d="M310 128H260V0H222V128H37V162L217 712H255L75 162H222V388H260V162H310V128Z" />
<glyph unicode="5" glyph-name="five" horiz-adv-x="346" d="M292 311T292 222T285 95T255 30Q225 -8 173 -8T91 22Q56 57 56 118V169H94V122Q94 74 116 50T173 26T227 53Q243 74 248 107T254 222Q254 302 248 336T226 392Q207 418 173 418T117 393T94 328V288H59V712H282V678H94V404Q105
425 126 437Q146 451 180 451Q227 451 256 414Q278 388 285 350Z" />
<glyph unicode="6" glyph-name="six" horiz-adv-x="346" d="M292 208Q292 122 285 86T255 25Q225 -8 173 -8T91 25Q68 50 61 86T54 208Q54 328 83 407L194 712H231L117 399Q146 423 181 423Q227 423 257 391Q278 369 285 335T292 208ZM254 132T254 208T249 317T227
368Q206 390 173 390T119 368Q102 351 97 318T92 208T97 99T119 48Q140 26 173 26T227 48Q244 65 249 98Z" />
<glyph unicode="7" glyph-name="seven" horiz-adv-x="346" d="M295 682L105 0H63L255 678H90V555H52V712H295V682Z" />
<glyph unicode="8" glyph-name="eight" horiz-adv-x="346" d="M292 194Q292 116 285 82T255 25Q224 -8 173 -8T91 25Q69 48 62 82T54 194Q54 274 59 302T81 352Q95 370 120 383Q94 396 80 419Q59 453 59 543Q59 609 67 640T94 690Q124 720 173 720T252 690Q271
671 279 640T287 543Q287 453 266 419Q252 396 226 383Q251 370 265 352Q281 330 286 302T292 194ZM254 194Q254 272 249 299T226 344Q205 366 173 366T120 344Q103 326 98 299T92 194Q92 125 98 96T120 48Q139 26 173 26T226 48Q242 66 248 95T254 194ZM249 543Q249
637 223 666Q203 686 173 686T123 666Q97 637 97 543Q97 447 124 419Q142 400 173 400T222 419Q249 447 249 543Z" />
<glyph unicode="9" glyph-name="nine" horiz-adv-x="346" d="M292 504Q292 384 263 305L152 0H115L229 313Q200 289 165 289Q119 289 89 321Q68 343 61 377T54 504Q54 590 61 626T91 687Q121 720 173 720T255 687Q278 662 285 626T292 504ZM254 428T254 504T249
613T227 664Q206 686 173 686T119 664Q102 647 97 614T92 504T97 395T119 344Q140 322 173 322T227 344Q244 361 249 394Z" />
<glyph unicode=":" glyph-name="colon" horiz-adv-x="216" d="M152 349H94V407H152V349ZM152 0H94V58H152V0Z" />
<glyph unicode=";" glyph-name="semicolon" horiz-adv-x="216" d="M149 -42L97 -80V60H149V-42ZM152 349H94V407H152V349Z" />
<glyph unicode="&lt;" glyph-name="less" horiz-adv-x="346" d="M312 100L34 261V301L312 462V418L74 281L312 144V100Z" />
<glyph unicode="=" glyph-name="equal" horiz-adv-x="422" d="M372 310H50V346H372V310ZM372 180H50V216H372V180Z" />
<glyph unicode="&gt;" glyph-name="greater" horiz-adv-x="346" d="M312 261L34 100V144L272 281L34 418V462L312 301V261Z" />
<glyph unicode="?" glyph-name="question" horiz-adv-x="356" d="M310 555Q310 490 283 443L225 345Q204 310 204 268V182H166V273Q166 316 188 354L246 452Q272 496 272 555Q272 628 241 661Q218 684 182 684Q148 684 124 662Q96 634 96 574H58Q58 649 94 684Q128
718 182 718Q239 718 272 684Q292 663 301 636T310 555ZM214 0H156V58H214V0Z" />
<glyph unicode="@" glyph-name="at" horiz-adv-x="482" d="M418 0H380V41Q373 25 354 11Q327 -8 294 -8Q249 -8 219 24Q188 55 188 119V355Q188 419 219 450Q249 482 294 482Q328 482 355 465Q373 452 380 436V580Q380 628 355 654T288 680H188Q147 680 122 654T96
580V89Q96 41 122 17L97 -8Q58 23 58 93V576Q58 641 94 677Q129 712 186 712H290Q347 712 382 677Q418 641 418 576V0ZM380 117V357Q380 401 359 424T303 448T248 425T226 357V117Q226 73 247 50T303 26T358 49T380 117Z" />
<glyph unicode="A" glyph-name="A" horiz-adv-x="347" d="M343 0H299L256 214H90L48 0H4L157 712H193L343 0ZM249 250L173 630L98 250H249Z" />
<glyph unicode="B" glyph-name="B" horiz-adv-x="396" d="M342 193Q342 129 332 97T299 40Q260 0 181 0H72V712H182Q260 712 296 672Q318 648 326 618T334 531Q334 442 290 398Q268 376 243 369Q272 363 296 341Q342 295 342 193ZM302 193Q302 350 188 350H112V36H188Q245
36 273 70T302 193ZM294 531Q294 613 268 644T188 676H112V386H188Q294 386 294 531Z" />
<glyph unicode="C" glyph-name="C" horiz-adv-x="382" d="M338 154Q338 63 291 22Q258 -8 203 -8Q141 -8 108 27Q76 60 67 117T58 356T67 595T108 685Q141 720 203 720Q262 720 297 685Q338 643 338 558H298Q298 629 266 661Q243 684 203 684Q159 684 136 659Q111
632 105 581T98 356T104 131T136 53Q159 28 203 28Q243 28 266 51Q298 83 298 154H338Z" />
<glyph unicode="D" glyph-name="D" horiz-adv-x="407" d="M349 536T349 356T341 122T300 34Q266 0 206 0H72V712H206Q266 712 300 678Q332 645 340 591ZM309 184T309 356T303 577T270 653Q247 676 203 676H112V36H203Q247 36 270 59Q296 85 302 134Z" />
<glyph unicode="E" glyph-name="E" horiz-adv-x="352" d="M302 0H72V712H302V676H112V374H276V338H112V36H302V0Z" />
<glyph unicode="F" glyph-name="F" horiz-adv-x="348" d="M302 676H112V374H276V338H112V0H72V712H302V676Z" />
<glyph unicode="G" glyph-name="G" horiz-adv-x="396" d="M338 138Q338 68 299 30T203 -8Q141 -8 108 27Q76 60 67 117T58 356T67 595T108 685Q141 720 203 720Q262 720 298 684Q338 641 338 558H298Q298 684 203 684Q159 684 136 659Q111 632 105 581T98 356T104
131T136 53Q159 28 203 28Q244 28 271 57T298 140V338H203V374H338V138Z" />
<glyph unicode="H" glyph-name="H" horiz-adv-x="414" d="M342 0H302V344H112V0H72V712H112V380H302V712H342V0Z" />
<glyph unicode="I" glyph-name="I" horiz-adv-x="184" d="M112 0H72V712H112V0Z" />
<glyph unicode="J" glyph-name="J" horiz-adv-x="312" d="M248 141Q248 68 208 28Q172 -8 113 -8Q50 -8 10 40L40 65Q69 28 113 28Q155 28 181 57T208 141V712H248V141Z" />
<glyph unicode="K" glyph-name="K" horiz-adv-x="387" d="M377 0H333L186 373L112 228V0H72V712H112V306L314 712H358L212 419L377 0Z" />
<glyph unicode="L" glyph-name="L" horiz-adv-x="324" d="M302 0H72V712H112V36H302V0Z" />
<glyph unicode="M" glyph-name="M" horiz-adv-x="542" d="M470 0H430V619L288 213H252L112 605V0H72V712H116L271 277L426 712H470V0Z" />
<glyph unicode="N" glyph-name="N" horiz-adv-x="438" d="M366 0H322L112 602V0H72V712H116L327 110L326 712H366V0Z" />
<glyph unicode="O" glyph-name="O" horiz-adv-x="406" d="M348 538T348 356T339 117T298 27Q265 -8 203 -8T108 27Q76 60 67 117T58 356T67 595T108 685Q141 720 203 720T298 685Q330 652 339 595ZM308 182T308 356T302 581T270 659Q247 684 203 684T136 659Q111
632 105 581T98 356T104 131T136 53Q159 28 203 28T270 53Q295 80 301 131Z" />
<glyph unicode="P" glyph-name="P" horiz-adv-x="392" d="M342 520Q342 412 306 370T198 328H112V0H72V712H198Q229 712 251 706T295 682T330 623T342 520ZM302 440T302 520T279 638T201 676H112V364H201Q256 364 279 402Z" />
<glyph unicode="Q" glyph-name="Q" horiz-adv-x="406" d="M368 0L346 -26L291 20Q255 -8 203 -8Q141 -8 108 27Q76 60 67 117T58 356T67 595T108 685Q141 720 203 720T298 685Q330 652 339 595T348 356Q348 197 342 137T314 46L368 0ZM308 356Q308 532 302 582T270
660Q247 684 203 684Q158 684 136 660Q111 633 105 583T98 356T104 130T136 52Q158 28 203 28Q240 28 262 44L199 97L221 123L284 70Q299 95 303 149T308 356Z" />
<glyph unicode="R" glyph-name="R" horiz-adv-x="415" d="M365 0H321L214 329H112V0H72V712H198Q229 712 251 706T295 682T330 623T342 520Q342 362 252 335L365 0ZM302 440T302 520T279 638T201 676H112V364H201Q256 364 279 402Z" />
<glyph unicode="S" glyph-name="S" horiz-adv-x="380" d="M331 182Q331 74 287 29Q252 -6 186 -6Q119 -6 84 29Q61 53 52 83T43 173H83Q83 88 114 57Q140 31 186 31Q235 31 259 57Q278 76 284 103T291 181Q291 253 275 285T213 337L140 367Q86 389 67 426T48 544Q48
636 93 681Q130 718 191 718Q254 718 291 681Q315 656 323 627T331 549H291Q291 620 261 654Q236 682 190 682Q149 682 123 658Q88 624 88 545Q88 476 103 448T171 398L244 368Q296 347 313 305T331 182Z" />
<glyph unicode="T" glyph-name="T" horiz-adv-x="322" d="M300 676H181V0H141V676H22V712H300V676Z" />
<glyph unicode="U" glyph-name="U" horiz-adv-x="398" d="M334 138Q334 67 294 29Q257 -8 199 -8T104 29Q64 67 64 138V712H104V134Q104 86 131 57T199 28T267 57T294 134V712H334V138Z" />
<glyph unicode="V" glyph-name="V" horiz-adv-x="346" d="M342 712L192 0H154L4 712H48L173 82L298 712H342Z" />
<glyph unicode="W" glyph-name="W" horiz-adv-x="542" d="M538 712L439 0H397L271 630L147 0H105L4 712H48L126 82L248 712H294L418 82L494 712H538Z" />
<glyph unicode="X" glyph-name="X" horiz-adv-x="351" d="M329 0H285L175 327L66 0H22L151 372L33 712H77L175 414L274 712H318L197 372L329 0Z" />
<glyph unicode="Y" glyph-name="Y" d="M285 712L164 305V0H124V305L4 712H48L144 371L241 712H285Z" />
<glyph unicode="Z" glyph-name="Z" horiz-adv-x="307" d="M277 0H30V32L236 676H45V712H277V680L72 36H277V0Z" />
<glyph unicode="[" glyph-name="bracketleft" horiz-adv-x="220" d="M190 -74H66V786H190V755H104V-43H190V-74Z" />
<glyph unicode="\" glyph-name="backslash" horiz-adv-x="227" d="M227 -74H185L0 786H42L227 -74Z" />
<glyph unicode="]" glyph-name="bracketright" horiz-adv-x="220" d="M154 -74H30V-43H116V755H30V786H154V-74Z" />
<glyph unicode="^" glyph-name="asciicircum" horiz-adv-x="442" d="M364 440H323L221 678L119 440H78L202 718H240L364 440Z" />
<glyph unicode="_" glyph-name="underscore" horiz-adv-x="422" d="M422 -127H0V-95H422V-127Z" />
<glyph unicode="`" glyph-name="grave" horiz-adv-x="338" d="M190 586H150L80 712H127L190 586Z" />
<glyph unicode="a" glyph-name="a" horiz-adv-x="335" d="M274 0H236V47Q228 28 210 13Q184 -8 148 -8Q104 -8 74 22Q40 58 40 136Q40 212 81 250Q117 283 174 283H236V381Q236 477 159 477Q129 477 109 457Q84 432 84 378H46Q46 445 80 479Q111 510 159 510Q213
510 242 481Q274 449 274 382V0ZM236 126V251H172Q133 251 108 227Q78 199 78 136Q78 26 155 26Q192 26 214 54T236 126Z" />
<glyph unicode="b" glyph-name="b" horiz-adv-x="350" d="M302 352T302 251T294 100T264 26Q233 -8 190 -8Q155 -8 130 11Q111 25 104 41V0H66V712H104V463Q115 483 130 493Q154 510 190 510Q234 510 264 476Q286 452 294 402ZM264 154T264 251T259 390T235 453Q214
476 183 476T130 456Q104 430 104 378V124Q104 72 130 46Q152 26 183 26T235 49Q253 70 258 112Z" />
<glyph unicode="c" glyph-name="c" horiz-adv-x="324" d="M284 127Q284 56 252 23Q221 -8 169 -8Q118 -8 86 27Q64 51 56 100T48 251T56 401T86 475Q118 510 169 510Q223 510 252 481Q284 449 284 375H247Q247 432 225 455Q205 476 170 476Q136 476 115 453Q97
432 92 390T86 251T91 112T115 49Q136 26 170 26Q203 26 223 46Q247 70 247 127H284Z" />
<glyph unicode="d" glyph-name="d" horiz-adv-x="350" d="M284 0H246V41Q239 25 220 11Q195 -8 160 -8Q117 -8 86 26Q64 50 56 100T48 251T56 402T86 476Q116 510 160 510Q196 510 220 493Q235 483 246 463V712H284V0ZM246 124V378Q246 430 220 456Q198 476 167
476T115 453Q97 432 92 390T86 251T91 112T115 49Q136 26 167 26T220 46Q246 72 246 124Z" />
<glyph unicode="e" glyph-name="e" horiz-adv-x="333" d="M290 251H86Q86 155 91 113T116 49Q137 26 171 26Q206 26 226 46Q252 71 252 127H289Q289 60 254 24Q222 -8 171 -8Q119 -8 87 27Q65 51 57 101T48 251Q48 352 56 401T86 475Q118 510 169 510T252 475Q274
451 282 402T290 251ZM252 283Q251 362 246 398T223 453Q202 476 169 476T115 453Q98 434 93 398T86 283H252Z" />
<glyph unicode="f" glyph-name="f" horiz-adv-x="225" d="M210 471H118V0H80V471H15V502H80V585Q80 647 113 680Q145 712 210 712V678Q118 678 118 587V502H210V471Z" />
<glyph unicode="g" glyph-name="g" horiz-adv-x="350" d="M284 -17Q284 -86 277 -118T248 -175Q216 -210 166 -210Q113 -210 82 -179Q50 -146 50 -75H87Q87 -132 111 -156Q131 -176 165 -176Q198 -176 219 -153Q246 -123 246 -16V39Q239 22 220 9Q196 -8 160 -8Q117
-8 86 26Q64 50 56 100T48 251T56 402T86 476Q116 510 160 510Q195 510 220 491Q239 477 246 461V502H284V-17ZM246 124V378Q246 430 220 456Q198 476 167 476T115 453Q97 432 92 390T86 251T91 112T115 49Q136 26 167 26T220 46Q246 72 246 124Z" />
<glyph unicode="h" glyph-name="h" horiz-adv-x="357" d="M296 0H258V384Q258 428 237 451T181 475T126 452T104 384V0H66V712H104V461Q111 477 130 491Q155 510 190 510Q235 510 265 478Q296 447 296 383V0Z" />
<glyph unicode="i" glyph-name="i" horiz-adv-x="170" d="M104 0H66V502H104V0ZM113 637H57V693H113V637Z" />
<glyph unicode="j" glyph-name="j" horiz-adv-x="170" d="M104 -83Q104 -145 71 -178Q39 -210 -21 -210V-176Q66 -176 66 -85V502H104V-83ZM113 637H57V693H113V637Z" />
<glyph unicode="k" glyph-name="k" horiz-adv-x="358" d="M338 0H296L178 281L104 162V0H66V712H104V220L275 502H318L202 312L338 0Z" />
<glyph unicode="l" glyph-name="l" horiz-adv-x="200" d="M185 0Q125 0 93 32Q60 65 60 127V712H98V125Q98 34 185 34V0Z" />
<glyph unicode="m" glyph-name="m" horiz-adv-x="549" d="M488 0H450V384Q450 428 429 451T373 475T318 452T296 384V0H258V384Q258 428 237 451T181 475T126 452T104 384V0H66V502H104V461Q111 477 130 491Q157 510 190 510Q216 510 241 495T282 457Q294 477
313 491Q340 510 376 510Q427 510 457 478Q488 447 488 383V0Z" />
<glyph unicode="n" glyph-name="n" horiz-adv-x="357" d="M296 0H258V384Q258 428 237 451T181 475T126 452T104 384V0H66V502H104V461Q111 477 130 491Q155 510 190 510Q235 510 265 478Q296 447 296 383V0Z" />
<glyph unicode="o" glyph-name="o" horiz-adv-x="338" d="M290 352T290 251T282 101T252 27Q220 -8 169 -8T86 27Q64 51 56 100T48 251T56 401T86 475Q118 510 169 510T252 475Q274 451 282 402ZM252 154T252 251T247 390T223 453Q202 476 169 476T115 453Q97
432 92 390T86 251T91 112T115 49Q136 26 169 26T223 49Q241 70 246 112Z" />
<glyph unicode="p" glyph-name="p" horiz-adv-x="350" d="M302 352T302 251T294 100T264 26Q234 -8 190 -8Q154 -8 130 9Q115 19 104 39V-210H66V502H104V461Q111 477 130 491Q155 510 190 510Q233 510 264 476Q286 452 294 402ZM264 154T264 251T259 390T235
453Q214 476 183 476T130 456Q104 430 104 378V124Q104 72 130 46Q152 26 183 26T235 49Q253 70 258 112Z" />
<glyph unicode="q" glyph-name="q" horiz-adv-x="350" d="M284 -210H246V39Q235 19 220 9Q196 -8 160 -8Q116 -8 86 26Q64 50 56 100T48 251T56 402T86 476Q117 510 160 510Q195 510 220 491Q239 477 246 461V502H284V-210ZM246 124V378Q246 430 220 456Q198 476
167 476T115 453Q97 432 92 390T86 251T91 112T115 49Q136 26 167 26T220 46Q246 72 246 124Z" />
<glyph unicode="r" glyph-name="r" horiz-adv-x="225" d="M210 476H206Q158 476 131 449T104 374V0H66V502H104V449Q110 466 121 477Q151 510 210 510V476Z" />
<glyph unicode="s" glyph-name="s" horiz-adv-x="320" d="M285 122Q285 66 248 29T157 -8Q106 -8 72 26Q35 63 35 133H73Q73 77 102 48Q124 26 157 26Q196 26 221 51Q247 79 247 122Q247 158 232 183Q219 206 177 231L116 268Q70 296 54 327Q41 350 41 389Q41
443 78 478Q112 510 161 510Q213 510 245 478Q279 444 279 371H241Q241 428 216 454Q195 476 161 476Q125 476 104 455Q79 431 79 389Q79 359 90 340Q101 322 139 298L200 261Q248 231 266 200Q285 169 285 122Z" />
<glyph unicode="t" glyph-name="t" horiz-adv-x="235" d="M215 0Q145 0 113 32Q80 65 80 127V471H15V502H80V656H118V502H210V471H118V125Q118 34 215 34V0Z" />
<glyph unicode="u" glyph-name="u" horiz-adv-x="357" d="M291 0H253V41Q246 25 227 11Q202 -8 167 -8Q122 -8 92 24Q61 55 61 119V502H99V118Q99 74 120 51T176 27T231 50T253 118V502H291V0Z" />
<glyph unicode="v" glyph-name="v" horiz-adv-x="278" d="M274 502L159 0H119L4 502H46L139 59L232 502H274Z" />
<glyph unicode="w" glyph-name="w" horiz-adv-x="437" d="M433 502L341 0H297L215 443L138 0H94L4 502H50L116 59L193 502H237L319 59L387 502H433Z" />
<glyph unicode="x" glyph-name="x" horiz-adv-x="296" d="M276 0H234L148 226L62 0H20L128 256L26 502H68L148 285L228 502H270L166 256L276 0Z" />
<glyph unicode="y" glyph-name="y" horiz-adv-x="281" d="M274 502L131 -110Q108 -210 1 -210V-176Q77 -176 94 -107L121 2L4 502H46L139 60L232 502H274Z" />
<glyph unicode="z" glyph-name="z" horiz-adv-x="259" d="M239 0H20V31L199 468H30V502H239V471L60 34H239V0Z" />
<glyph unicode="{" glyph-name="braceleft" horiz-adv-x="270" d="M240 -74H230Q180 -74 148 -42Q115 -9 115 53V248Q115 292 95 315T40 339H30V373H40Q74 373 94 396T115 464V659Q115 721 148 754Q180 786 230 786H240V752H230Q196 752 175 729T153 661V466Q153
402 122 371Q114 363 100 356Q110 352 122 341Q153 310 153 246V51Q153 7 174 -16T230 -40H240V-74Z" />
<glyph unicode="|" glyph-name="bar" horiz-adv-x="222" d="M130 -74H92V786H130V-74Z" />
<glyph unicode="}" glyph-name="braceright" horiz-adv-x="270" d="M240 339H230Q196 339 176 316T155 248V53Q155 -9 122 -42Q90 -74 40 -74H30V-40H40Q74 -40 95 -17T117 51V246Q117 310 148 341Q156 349 170 356Q160 360 148 371Q117 402 117 466V661Q117 705
96 728T40 752H30V786H40Q90 786 122 754Q155 721 155 659V464Q155 420 175 397T230 373H240V339Z" />
<glyph unicode="~" glyph-name="asciitilde" horiz-adv-x="422" d="M367 282Q337 252 319 243T278 233Q256 233 200 257Q156 275 142 275Q125 275 113 269T78 240L55 263Q85 293 103 302T144 312Q166 312 222 288Q266 270 280 270Q297 270 309 276T344 305L367 282Z" />
</font>
</defs>
</svg>
